<svg width="20" height="20" viewBox="0 0 20 20" fill="none" xmlns="http://www.w3.org/2000/svg">
<g clip-path="url(#clip0_2_702)">
<path d="M9.99999 5.41667C13.1583 5.41667 15.975 7.19167 17.35 10C15.975 12.8083 13.1667 14.5833 9.99999 14.5833C6.83333 14.5833 4.02499 12.8083 2.64999 10C4.02499 7.19167 6.84166 5.41667 9.99999 5.41667ZM9.99999 3.75C5.83333 3.75 2.27499 6.34167 0.833328 10C2.27499 13.6583 5.83333 16.25 9.99999 16.25C14.1667 16.25 17.725 13.6583 19.1667 10C17.725 6.34167 14.1667 3.75 9.99999 3.75ZM9.99999 7.91667C11.15 7.91667 12.0833 8.85 12.0833 10C12.0833 11.15 11.15 12.0833 9.99999 12.0833C8.84999 12.0833 7.91666 11.15 7.91666 10C7.91666 8.85 8.84999 7.91667 9.99999 7.91667ZM9.99999 6.25C7.93333 6.25 6.24999 7.93333 6.24999 10C6.24999 12.0667 7.93333 13.75 9.99999 13.75C12.0667 13.75 13.75 12.0667 13.75 10C13.75 7.93333 12.0667 6.25 9.99999 6.25Z" fill="#4C54F4"/>
</g>
<defs>
<clipPath id="clip0_2_702">
<rect width="20" height="20" fill="white"/>
</clipPath>
</defs>
</svg>
