<svg width="100" height="69" viewBox="0 0 100 69" fill="none" xmlns="http://www.w3.org/2000/svg">
<g clip-path="url(#clip0_2_777)">
<path d="M27.393 58.094V50.1916H23.8169C21.7904 50.1916 20.7057 49.989 19.9666 49.25C19.0707 47.9969 18.6831 46.4508 18.8819 44.9233V35.8052C19.0262 34.3101 18.6376 32.8121 17.7849 31.5756C16.9321 30.3391 15.6699 29.4435 14.221 29.0469C15.6699 28.6504 16.9321 27.7549 17.7848 26.5183C18.6376 25.2818 19.0261 23.7839 18.8819 22.2888V13.1707C18.6771 11.6429 19.0652 10.0946 19.9666 8.84405C20.7057 8.10506 21.7904 7.90243 23.8169 7.90243H27.393V6.45481e-05H20.503C19.1378 -0.112719 17.7639 0.0508054 16.4634 0.480867C15.1628 0.910929 13.9623 1.5987 12.9336 2.5031C11.9735 3.49262 11.2264 4.66839 10.7385 5.95784C10.2505 7.24729 10.0321 8.62306 10.0966 10.0002V19.7977C10.2578 21.246 9.84722 22.7001 8.9522 23.8502C8.48168 24.2886 7.92812 24.6284 7.32416 24.8495C6.72021 25.0706 6.07809 25.1685 5.43568 25.1375H2.32446V32.9684H5.43568C6.07825 32.9357 6.72082 33.0329 7.325 33.254C7.92919 33.4752 8.4826 33.8159 8.9522 34.2556C9.84723 35.4058 10.2578 36.8598 10.0966 38.3081V48.1057C10.0321 49.4829 10.2505 50.8586 10.7385 52.1481C11.2264 53.4375 11.9735 54.6133 12.9336 55.6028C13.9623 56.5072 15.1628 57.195 16.4634 57.6251C17.7639 58.0551 19.1378 58.2186 20.503 58.1059H27.393V58.094Z" fill="#101D2D"/>
<path fill-rule="evenodd" clip-rule="evenodd" d="M32.3757 27.4498H49.6722V58.1059H28.7162V50.2036H40.8869V35.3641H32.3758V27.4498H32.3757ZM51.341 50.1917V37.7957H60.1264V50.1916H72.297V58.094H51.341V50.1917ZM60.1264 0.0119324H72.297V7.9143H60.1264V20.3103H51.341V0.0119324H60.1264ZM40.8869 0.0119324H28.7162V7.9143H40.8869V20.3103H49.6722V0.0119324H40.8869Z" fill="#4C54F4"/>
<path d="M73.6202 58.094V50.1916H77.1963C79.2228 50.1916 80.3075 49.989 81.0466 49.25C81.9425 47.9969 82.3301 46.4508 82.1313 44.9233V35.8052C81.987 34.3102 82.3756 32.8122 83.2283 31.5757C84.0811 30.3392 85.3433 29.4436 86.7922 29.047C85.3433 28.6505 84.0811 27.7549 83.2283 26.5184C82.3756 25.2819 81.987 23.784 82.1313 22.2889V13.1708C82.3361 11.6429 81.948 10.0947 81.0466 8.84412C80.3075 8.10513 79.2228 7.9025 77.1963 7.9025H73.6202V0.000134699H80.5102C81.8753 -0.112664 83.2492 0.0508472 84.5498 0.480899C85.8504 0.910951 87.0509 1.59872 88.0796 2.50311C89.0397 3.49263 89.7868 4.6684 90.2748 5.95785C90.7627 7.24731 90.9812 8.62307 90.9167 10.0002V19.7977C90.7554 21.2461 91.166 22.7001 92.061 23.8502C92.5315 24.2887 93.0851 24.6284 93.6891 24.8495C94.293 25.0706 94.9351 25.1685 95.5775 25.1375H98.6888V32.9684H95.5775C94.9349 32.9357 94.2924 33.0329 93.6882 33.2541C93.084 33.4752 92.5306 33.8159 92.061 34.2557C91.166 35.4058 90.7554 36.8598 90.9166 38.3082V48.1057C90.9811 49.4829 90.7627 50.8586 90.2747 52.1481C89.7868 53.4375 89.0397 54.6133 88.0796 55.6028C87.0509 56.5072 85.8504 57.195 84.5498 57.6251C83.2493 58.0551 81.8754 58.2187 80.5102 58.1059H73.6202L73.6202 58.094Z" fill="#101D2D"/>
<path d="M7.3191 65.3289C7.32644 65.826 7.23738 66.3198 7.05685 66.7831C6.89056 67.2114 6.64373 67.6038 6.32971 67.9392C6.01447 68.27 5.63253 68.53 5.2092 68.702C4.75087 68.8865 4.2609 68.9797 3.76684 68.9762C3.24442 68.9815 2.72603 68.8843 2.24101 68.6901C1.79493 68.5105 1.38957 68.243 1.04906 67.9035C0.715167 67.5745 0.451571 67.1812 0.274247 66.7473C0.0919704 66.2967 -0.00113778 65.815 8.44431e-05 65.3289C-0.00114238 64.8467 0.0919946 64.3689 0.274247 63.9225C0.448764 63.49 0.708171 63.0969 1.03715 62.7663C1.37768 62.4268 1.78307 62.1592 2.22918 61.9796C2.71805 61.7844 3.24054 61.6872 3.76693 61.6936C4.36519 61.6817 4.95767 61.8125 5.49538 62.075C5.98311 62.3212 6.40119 62.686 6.71125 63.1358L5.54306 64.1251C5.32492 63.8411 5.05366 63.6023 4.74438 63.4219C4.44232 63.2529 4.10106 63.1666 3.75499 63.1716C3.46152 63.1666 3.16992 63.2192 2.89673 63.3265C2.63994 63.4262 2.40804 63.5807 2.21728 63.7794C2.02216 63.9777 1.8682 64.2127 1.76428 64.4708C1.65299 64.7556 1.59638 65.0589 1.59741 65.3647C1.59242 65.6581 1.64507 65.9497 1.75238 66.2229C1.8522 66.4767 2.00221 66.7078 2.19344 66.9022C2.38356 67.0932 2.61072 67.2433 2.86096 67.3433C3.1292 67.4545 3.41691 67.5112 3.70731 67.5101C4.117 67.5271 4.52162 67.4145 4.8636 67.1883C5.1708 66.9668 5.40024 66.6539 5.51922 66.2944H3.65955V64.9118H7.28322V65.317L7.3191 65.3289ZM11.0144 63.5053L10.1085 66.2467H11.9323L11.0263 63.5053L11.0144 63.5053ZM12.3972 67.6414H9.64356L9.2502 68.8452H7.62904L10.0966 61.8486H12.0396L14.4952 68.8452H12.7905L12.3972 67.6414ZM16.5097 64.6735V68.8452H14.9839V61.8485H16.8792L18.9295 66.4732L20.9799 61.8485H22.8752V68.8451H21.3255V64.6495L19.4302 68.8451H18.3931L16.4978 64.6734L16.5097 64.6735ZM23.7573 61.8485H28.8713V63.2788H25.3427V64.6018H28.6088V65.9964H25.3427V67.4267H28.8831V68.8571H23.7573V61.8485ZM29.5863 61.8485H32.4472C32.9491 61.844 33.4471 61.9371 33.9134 62.1227C34.3331 62.2906 34.7143 62.542 35.034 62.8617C35.3446 63.1746 35.588 63.5478 35.7492 63.9582C35.919 64.3909 36.004 64.8522 35.9995 65.317C36.0047 65.7907 35.9156 66.2607 35.7373 66.6996C35.5665 67.1207 35.3109 67.5021 34.9863 67.82C34.6595 68.1451 34.2702 68.4005 33.8419 68.5709C33.3676 68.7576 32.8616 68.8507 32.3519 68.8451H29.5744V61.8485H29.5863ZM31.1718 63.3026V67.4028H32.4234C32.6937 67.408 32.962 67.3552 33.2102 67.2481C33.445 67.1445 33.6591 66.9991 33.8419 66.8189C34.0251 66.6295 34.1707 66.4071 34.2711 66.1634C34.3783 65.9027 34.4311 65.6228 34.426 65.341C34.4311 65.063 34.3783 64.787 34.2711 64.5305C34.1706 64.2904 34.0249 64.0719 33.8419 63.8869C33.6461 63.6971 33.4147 63.5478 33.1611 63.4476C32.9074 63.3474 32.6365 63.2982 32.3638 63.3028L31.1718 63.3026ZM36.7028 61.8485H41.8168V63.2788H38.2882V64.6018H41.5544V65.9964H38.2882V67.4267H41.8286V68.8571H36.7028V61.8485ZM44.5941 68.8451L42.1743 61.8485H43.8789L45.6073 67.1406L47.3358 61.8485H48.9689L46.5371 68.8451H44.5941ZM54.488 63.5053L53.5821 66.2467H55.4059L54.4999 63.5053H54.488ZM55.8708 67.6412H53.1172L52.7238 68.8451H51.1026L53.5702 61.8485H55.5132L57.9688 68.8451H56.2642L55.8708 67.6412ZM61.4376 63.1835C61.1549 63.1823 60.875 63.2391 60.6151 63.3503C60.3648 63.4548 60.1408 63.6136 59.9595 63.8152C59.7682 64.0097 59.6182 64.2408 59.5184 64.4946C59.3118 65.0439 59.3118 65.6497 59.5184 66.199C59.6181 66.4565 59.768 66.6915 59.9595 66.8903C60.156 67.0851 60.3862 67.2426 60.6389 67.3552C60.9113 67.4664 61.2029 67.5231 61.4972 67.5221C61.8965 67.5289 62.2894 67.4214 62.6296 67.2122C62.9548 67.006 63.2249 66.7238 63.4164 66.3897L64.6561 67.2479C64.3376 67.775 63.8958 68.2168 63.3687 68.5352C62.8073 68.8573 62.168 69.0181 61.521 69C61.0102 69.0054 60.5035 68.9081 60.031 68.714C59.5855 68.5386 59.1801 68.2751 58.839 67.9392C58.4972 67.5985 58.2265 67.1935 58.0423 66.7475C57.8582 66.3015 57.7643 65.8234 57.7661 65.3409C57.7619 64.8495 57.8593 64.3625 58.0522 63.9106C58.2354 63.4804 58.5029 63.0914 58.839 62.7663C59.4333 62.2137 60.1829 61.8569 60.9866 61.7439C61.7903 61.6309 62.6092 61.7673 63.3329 62.1346C63.8859 62.4393 64.3376 62.8992 64.6322 63.4576L63.3806 64.3277C63.19 63.9969 62.9247 63.7153 62.6058 63.5053C62.2668 63.2823 61.867 63.1698 61.4614 63.1835H61.4376ZM67.958 63.5053L67.0521 66.2467H68.8759L67.97 63.5053L67.958 63.5053ZM69.3408 67.6413H66.5872L66.1938 68.8451H64.5728L67.0403 61.8486H68.9831L71.4387 68.8451H69.7341L69.3408 67.6413ZM71.9394 61.8486H74.8003C75.3022 61.844 75.8002 61.9371 76.2665 62.1227C76.6862 62.2906 77.0674 62.542 77.3871 62.8617C77.6977 63.1747 77.9411 63.5478 78.1023 63.9582C78.2721 64.3909 78.3571 64.8522 78.3526 65.317C78.3578 65.7907 78.2687 66.2607 78.0904 66.6997C77.9196 67.1207 77.664 67.5021 77.3394 67.8201C77.0126 68.1451 76.6233 68.4006 76.195 68.5709C75.7207 68.7576 75.2147 68.8507 74.705 68.8451H71.9275V61.8485L71.9394 61.8486ZM73.5249 63.3027V67.4029H74.7765C75.0468 67.408 75.3151 67.3553 75.5633 67.2481C75.7981 67.1446 76.0122 66.9992 76.195 66.819C76.3782 66.6295 76.5238 66.4071 76.6242 66.1634C76.7314 65.9028 76.7842 65.6229 76.7791 65.341C76.7842 65.063 76.7314 64.787 76.6242 64.5305C76.5237 64.2905 76.378 64.0719 76.195 63.8869C75.9992 63.6971 75.7678 63.5479 75.5141 63.4476C75.2605 63.3474 74.9896 63.2982 74.7169 63.3029L73.5249 63.3027ZM79.0559 61.8486H84.1699V63.2788H80.6413V64.6019H83.9075V65.9964H80.6413V67.4267H84.1817V68.8571H79.0559V61.8485V61.8486ZM86.4108 64.6734V68.8451H84.885V61.8485H86.7803L88.8306 66.4732L90.8809 61.8485H92.7763V68.8451H91.2266V64.6495L89.3313 68.8451H88.2942L86.3989 64.6734H86.4108ZM95.8636 68.8451V66.2348L93.3246 61.8486H95.0769L96.6861 64.7926L98.3073 61.8486H100L97.461 66.2348V68.8451H95.8636Z" fill="#101D2D"/>
</g>
<defs>
<clipPath id="clip0_2_777">
<rect width="100" height="69" fill="white"/>
</clipPath>
</defs>
</svg>
