<svg width="24" height="24" viewBox="0 0 24 24" fill="none" xmlns="http://www.w3.org/2000/svg">
<path fill-rule="evenodd" clip-rule="evenodd" d="M11.6667 2C6.32782 2 2 6.32875 2 11.6667C2 17.0066 6.32769 21.3333 11.6667 21.3333C17.0056 21.3333 21.3333 17.0066 21.3333 11.6667C21.3333 6.32875 17.0055 2 11.6667 2ZM0 11.6667C0 5.22431 5.22312 0 11.6667 0C18.1102 0 23.3333 5.22431 23.3333 11.6667C23.3333 18.1113 18.1101 23.3333 11.6667 23.3333C5.22325 23.3333 0 18.1113 0 11.6667ZM11.6668 14.1282C12.409 14.1282 13.0141 13.5423 13.0141 12.8238V6.23452C13.0141 5.51596 12.409 4.93008 11.6668 4.93008C10.9246 4.93008 10.3194 5.51596 10.3194 6.23452V12.8238C10.3194 13.5423 10.9246 14.1282 11.6668 14.1282ZM10.3312 17.0899C10.3312 16.366 10.9316 15.7758 11.6671 15.7758C12.4241 15.7758 13.026 16.366 13.026 17.0899C13.026 17.8137 12.4241 18.4039 11.6824 18.4039C10.9377 18.4039 10.3312 17.8137 10.3312 17.0899Z" fill="#249F5D"/>
</svg>
