<svg width="23" height="23" viewBox="0 0 20 20" fill="none" xmlns="http://www.w3.org/2000/svg">
<path d="M18.3333 9.99978C18.3333 14.6031 14.6024 18.3331 9.99993 18.3331C5.39743 18.3331 1.6666 14.6031 1.6666 9.99978C1.6666 5.39811 5.39743 1.66644 9.99993 1.66644C14.6024 1.66644 18.3333 5.39811 18.3333 9.99978" stroke="#FC5A5A" stroke-width="2"/>
<path d="M10 11.9228C10.5799 11.9228 11.0526 11.4651 11.0526 10.9038V5.7559C11.0526 5.19453 10.5799 4.73682 10 4.73682C9.42015 4.73682 8.94737 5.19453 8.94737 5.7559V10.9038C8.94737 11.4651 9.42015 11.9228 10 11.9228Z" fill="#FC5A5A"/>
<path d="M10.0003 13.2101C9.42566 13.2101 8.95662 13.6712 8.95662 14.2367C8.95662 14.8022 9.43045 15.2632 10.0122 15.2632C10.5916 15.2632 11.0619 14.8022 11.0619 14.2367C11.0619 13.6712 10.5916 13.2101 10.0003 13.2101Z" fill="#FC5A5A"/>
</svg>
