<svg width="10" height="10" viewBox="0 0 10 10" fill="none" xmlns="http://www.w3.org/2000/svg">
<path fill-rule="evenodd" clip-rule="evenodd" d="M9.70971 1.70711C10.1002 1.31659 10.1002 0.68342 9.70971 0.292895C9.31919 -0.0976302 8.68602 -0.0976319 8.2955 0.292891L5.0013 3.58707L1.7071 0.292891C1.31658 -0.0976319 0.683415 -0.0976302 0.292891 0.292895C-0.0976319 0.68342 -0.0976302 1.31659 0.292895 1.70711L3.58708 5.00128L0.292895 8.29545C-0.0976302 8.68598 -0.0976319 9.31914 0.292891 9.70967C0.683415 10.1002 1.31658 10.1002 1.7071 9.70967L5.0013 6.41549L8.2955 9.70967C8.68602 10.1002 9.31919 10.1002 9.70971 9.70967C10.1002 9.31914 10.1002 8.68598 9.70971 8.29545L6.41552 5.00128L9.70971 1.70711Z" fill="#6F727A" fill-opacity="0.5"/>
</svg>
